<svg width="36" height="35" viewBox="0 0 36 35" fill="none" xmlns="http://www.w3.org/2000/svg">
<g filter="url(#filter0_d_43_140)">
<path d="M18.9504 2.12048L20.8479 7.91976C21.2514 9.15284 22.4018 9.98685 23.6992 9.98685H29.8097C30.7802 9.98685 31.1818 11.23 30.3949 11.7978L25.4753 15.3472C24.4165 16.1111 23.9734 17.4721 24.3794 18.713L26.2641 24.4733C26.5652 25.3934 25.5137 26.1616 24.7286 25.5952L19.7553 22.007C18.7073 21.2509 17.2927 21.2509 16.2447 22.007L11.2714 25.5952C10.4863 26.1616 9.43482 25.3934 9.73586 24.4733L11.6206 18.713C12.0266 17.4721 11.5835 16.1111 10.5247 15.3472L5.60514 11.7978C4.81818 11.23 5.21983 9.98685 6.19025 9.98685H12.3008C13.5982 9.98685 14.7486 9.15284 15.1521 7.91976L17.0496 2.12048C17.3502 1.20177 18.6498 1.20177 18.9504 2.12048Z" stroke="#FFA928" strokeWidth="2" shapeRendering="crispEdges"/>
</g>
<defs>
<filter id="filter0_d_43_140" x="0.186523" y="0.431396" width="35.627" height="34.3619" filterUnits="userSpaceOnUse" colorInterpolationFilters="sRGB">
<feFlood floodOpacity="0" result="BackgroundImageFix"/>
<feColorMatrix in="SourceAlpha" type="matrix" values="0 0 0 0 0 0 0 0 0 0 0 0 0 0 0 0 0 0 127 0" result="hardAlpha"/>
<feOffset dy="4"/>
<feGaussianBlur stdDeviation="2"/>
<feComposite in2="hardAlpha" operator="out"/>
<feColorMatrix type="matrix" values="0 0 0 0 0 0 0 0 0 0 0 0 0 0 0 0 0 0 0.25 0"/>
<feBlend mode="normal" in2="BackgroundImageFix" result="effect1_dropShadow_43_140"/>
<feBlend mode="normal" in="SourceGraphic" in2="effect1_dropShadow_43_140" result="shape"/>
</filter>
</defs>
</svg>
